<svg width="443" height="62" viewBox="0 0 443 62" fill="none" xmlns="http://www.w3.org/2000/svg">
<rect x="0.411819" y="0.601318" width="442.597" height="60.8667" rx="15" fill="white"/>
<path d="M33.4085 26.7351V29.9991H37.2485V31.4871H33.4085V34.8951H37.7285V36.3831H31.5845V25.2471H37.7285V26.7351H33.4085ZM44.4232 27.4231C45.1165 27.4231 45.7352 27.5671 46.2792 27.8551C46.8338 28.1431 47.2658 28.5697 47.5752 29.1351C47.8845 29.7004 48.0392 30.3831 48.0392 31.1831V36.3831H46.2312V31.4551C46.2312 30.6657 46.0338 30.0631 45.6392 29.6471C45.2445 29.2204 44.7058 29.0071 44.0232 29.0071C43.3405 29.0071 42.7965 29.2204 42.3912 29.6471C41.9965 30.0631 41.7992 30.6657 41.7992 31.4551V36.3831H39.9752V27.5671H41.7992V28.5751C42.0978 28.2124 42.4765 27.9297 42.9352 27.7271C43.4045 27.5244 43.9005 27.4231 44.4232 27.4231ZM52.4938 29.0551V33.9351C52.4938 34.2657 52.5685 34.5057 52.7178 34.6551C52.8778 34.7937 53.1445 34.8631 53.5178 34.8631H54.6378V36.3831H53.1978C52.3765 36.3831 51.7471 36.1911 51.3098 35.8071C50.8725 35.4231 50.6538 34.7991 50.6538 33.9351V29.0551H49.6138V27.5671H50.6538V25.3751H52.4938V27.5671H54.6378V29.0551H52.4938ZM64.3989 31.7591C64.3989 32.0897 64.3776 32.3884 64.3349 32.6551H57.5989C57.6523 33.3591 57.9136 33.9244 58.3829 34.3511C58.8523 34.7777 59.4283 34.9911 60.1109 34.9911C61.0923 34.9911 61.7856 34.5804 62.1909 33.7591H64.1589C63.8923 34.5697 63.4069 35.2364 62.7029 35.7591C62.0096 36.2711 61.1456 36.5271 60.1109 36.5271C59.2683 36.5271 58.5109 36.3404 57.8389 35.9671C57.1776 35.5831 56.6549 35.0497 56.2709 34.3671C55.8976 33.6737 55.7109 32.8737 55.7109 31.9671C55.7109 31.0604 55.8923 30.2657 56.2549 29.5831C56.6283 28.8897 57.1456 28.3564 57.8069 27.9831C58.4789 27.6097 59.2469 27.4231 60.1109 27.4231C60.9429 27.4231 61.6843 27.6044 62.3349 27.9671C62.9856 28.3297 63.4923 28.8417 63.8549 29.5031C64.2176 30.1537 64.3989 30.9057 64.3989 31.7591ZM62.4949 31.1831C62.4843 30.5111 62.2443 29.9724 61.7749 29.5671C61.3056 29.1617 60.7243 28.9591 60.0309 28.9591C59.4016 28.9591 58.8629 29.1617 58.4149 29.5671C57.9669 29.9617 57.7003 30.5004 57.6149 31.1831H62.4949ZM68.0179 28.8471C68.2846 28.3991 68.6366 28.0524 69.0739 27.8071C69.5219 27.5511 70.0499 27.4231 70.6579 27.4231V29.3111H70.1939C69.4793 29.3111 68.9353 29.4924 68.5619 29.8551C68.1993 30.2177 68.0179 30.8471 68.0179 31.7431V36.3831H66.1939V27.5671H68.0179V28.8471ZM78.3148 26.7351V29.9991H82.1548V31.4871H78.3148V34.8951H82.6348V36.3831H76.4908V25.2471H82.6348V26.7351H78.3148ZM95.5534 27.4231C96.2468 27.4231 96.8654 27.5671 97.4094 27.8551C97.9641 28.1431 98.3961 28.5697 98.7054 29.1351C99.0254 29.7004 99.1854 30.3831 99.1854 31.1831V36.3831H97.3774V31.4551C97.3774 30.6657 97.1801 30.0631 96.7854 29.6471C96.3908 29.2204 95.8521 29.0071 95.1694 29.0071C94.4868 29.0071 93.9428 29.2204 93.5374 29.6471C93.1428 30.0631 92.9454 30.6657 92.9454 31.4551V36.3831H91.1374V31.4551C91.1374 30.6657 90.9401 30.0631 90.5454 29.6471C90.1508 29.2204 89.6121 29.0071 88.9294 29.0071C88.2468 29.0071 87.7028 29.2204 87.2974 29.6471C86.9028 30.0631 86.7054 30.6657 86.7054 31.4551V36.3831H84.8814V27.5671H86.7054V28.5751C87.0041 28.2124 87.3828 27.9297 87.8414 27.7271C88.3001 27.5244 88.7908 27.4231 89.3134 27.4231C90.0174 27.4231 90.6468 27.5724 91.2014 27.8711C91.7561 28.1697 92.1828 28.6017 92.4814 29.1671C92.7481 28.6337 93.1641 28.2124 93.7294 27.9031C94.2948 27.5831 94.9028 27.4231 95.5534 27.4231ZM100.898 31.9351C100.898 31.0497 101.08 30.2657 101.442 29.5831C101.816 28.9004 102.317 28.3724 102.946 27.9991C103.586 27.6151 104.29 27.4231 105.058 27.4231C105.752 27.4231 106.354 27.5617 106.866 27.8391C107.389 28.1057 107.805 28.4417 108.114 28.8471V27.5671H109.954V36.3831H108.114V35.0711C107.805 35.4871 107.384 35.8337 106.85 36.1111C106.317 36.3884 105.709 36.5271 105.026 36.5271C104.269 36.5271 103.576 36.3351 102.946 35.9511C102.317 35.5564 101.816 35.0124 101.442 34.3191C101.08 33.6151 100.898 32.8204 100.898 31.9351ZM108.114 31.9671C108.114 31.3591 107.986 30.8311 107.73 30.3831C107.485 29.9351 107.16 29.5937 106.754 29.3591C106.349 29.1244 105.912 29.0071 105.442 29.0071C104.973 29.0071 104.536 29.1244 104.13 29.3591C103.725 29.5831 103.394 29.9191 103.138 30.3671C102.893 30.8044 102.77 31.3271 102.77 31.9351C102.77 32.5431 102.893 33.0764 103.138 33.5351C103.394 33.9937 103.725 34.3457 104.13 34.5911C104.546 34.8257 104.984 34.9431 105.442 34.9431C105.912 34.9431 106.349 34.8257 106.754 34.5911C107.16 34.3564 107.485 34.0151 107.73 33.5671C107.986 33.1084 108.114 32.5751 108.114 31.9671ZM113.278 26.3991C112.948 26.3991 112.67 26.2871 112.446 26.0631C112.222 25.8391 112.11 25.5617 112.11 25.2311C112.11 24.9004 112.222 24.6231 112.446 24.3991C112.67 24.1751 112.948 24.0631 113.278 24.0631C113.598 24.0631 113.87 24.1751 114.094 24.3991C114.318 24.6231 114.43 24.9004 114.43 25.2311C114.43 25.5617 114.318 25.8391 114.094 26.0631C113.87 26.2871 113.598 26.3991 113.278 26.3991ZM114.174 27.5671V36.3831H112.35V27.5671H114.174ZM118.393 24.5431V36.3831H116.569V24.5431H118.393ZM131.648 34.1111H126.992L126.192 36.3831H124.288L128.272 25.2471H130.384L134.368 36.3831H132.448L131.648 34.1111ZM131.136 32.6231L129.328 27.4551L127.504 32.6231H131.136ZM135.492 31.9351C135.492 31.0497 135.674 30.2657 136.036 29.5831C136.41 28.9004 136.911 28.3724 137.54 27.9991C138.18 27.6151 138.89 27.4231 139.668 27.4231C140.244 27.4231 140.81 27.5511 141.364 27.8071C141.93 28.0524 142.378 28.3831 142.708 28.7991V24.5431H144.548V36.3831H142.708V35.0551C142.41 35.4817 141.994 35.8337 141.46 36.1111C140.938 36.3884 140.335 36.5271 139.652 36.5271C138.884 36.5271 138.18 36.3351 137.54 35.9511C136.911 35.5564 136.41 35.0124 136.036 34.3191C135.674 33.6151 135.492 32.8204 135.492 31.9351ZM142.708 31.9671C142.708 31.3591 142.58 30.8311 142.324 30.3831C142.079 29.9351 141.754 29.5937 141.348 29.3591C140.943 29.1244 140.506 29.0071 140.036 29.0071C139.567 29.0071 139.13 29.1244 138.724 29.3591C138.319 29.5831 137.988 29.9191 137.732 30.3671C137.487 30.8044 137.364 31.3271 137.364 31.9351C137.364 32.5431 137.487 33.0764 137.732 33.5351C137.988 33.9937 138.319 34.3457 138.724 34.5911C139.14 34.8257 139.578 34.9431 140.036 34.9431C140.506 34.9431 140.943 34.8257 141.348 34.5911C141.754 34.3564 142.079 34.0151 142.324 33.5671C142.58 33.1084 142.708 32.5751 142.708 31.9671ZM146.336 31.9351C146.336 31.0497 146.517 30.2657 146.88 29.5831C147.253 28.9004 147.755 28.3724 148.384 27.9991C149.024 27.6151 149.733 27.4231 150.512 27.4231C151.088 27.4231 151.653 27.5511 152.208 27.8071C152.773 28.0524 153.221 28.3831 153.552 28.7991V24.5431H155.392V36.3831H153.552V35.0551C153.253 35.4817 152.837 35.8337 152.304 36.1111C151.781 36.3884 151.179 36.5271 150.496 36.5271C149.728 36.5271 149.024 36.3351 148.384 35.9511C147.755 35.5564 147.253 35.0124 146.88 34.3191C146.517 33.6151 146.336 32.8204 146.336 31.9351ZM153.552 31.9671C153.552 31.3591 153.424 30.8311 153.168 30.3831C152.923 29.9351 152.597 29.5937 152.192 29.3591C151.787 29.1244 151.349 29.0071 150.88 29.0071C150.411 29.0071 149.973 29.1244 149.568 29.3591C149.163 29.5831 148.832 29.9191 148.576 30.3671C148.331 30.8044 148.208 31.3271 148.208 31.9351C148.208 32.5431 148.331 33.0764 148.576 33.5351C148.832 33.9937 149.163 34.3457 149.568 34.5911C149.984 34.8257 150.421 34.9431 150.88 34.9431C151.349 34.9431 151.787 34.8257 152.192 34.5911C152.597 34.3564 152.923 34.0151 153.168 33.5671C153.424 33.1084 153.552 32.5751 153.552 31.9671ZM159.612 28.8471C159.878 28.3991 160.23 28.0524 160.668 27.8071C161.116 27.5511 161.644 27.4231 162.252 27.4231V29.3111H161.788C161.073 29.3111 160.529 29.4924 160.156 29.8551C159.793 30.2177 159.612 30.8471 159.612 31.7431V36.3831H157.788V27.5671H159.612V28.8471ZM172.008 31.7591C172.008 32.0897 171.987 32.3884 171.944 32.6551H165.208C165.262 33.3591 165.523 33.9244 165.992 34.3511C166.462 34.7777 167.038 34.9911 167.72 34.9911C168.702 34.9911 169.395 34.5804 169.8 33.7591H171.768C171.502 34.5697 171.016 35.2364 170.312 35.7591C169.619 36.2711 168.755 36.5271 167.72 36.5271C166.878 36.5271 166.12 36.3404 165.448 35.9671C164.787 35.5831 164.264 35.0497 163.88 34.3671C163.507 33.6737 163.32 32.8737 163.32 31.9671C163.32 31.0604 163.502 30.2657 163.864 29.5831C164.238 28.8897 164.755 28.3564 165.416 27.9831C166.088 27.6097 166.856 27.4231 167.72 27.4231C168.552 27.4231 169.294 27.6044 169.944 27.9671C170.595 28.3297 171.102 28.8417 171.464 29.5031C171.827 30.1537 172.008 30.9057 172.008 31.7591ZM170.104 31.1831C170.094 30.5111 169.854 29.9724 169.384 29.5671C168.915 29.1617 168.334 28.9591 167.64 28.9591C167.011 28.9591 166.472 29.1617 166.024 29.5671C165.576 29.9617 165.31 30.5004 165.224 31.1831H170.104ZM177.003 36.5271C176.31 36.5271 175.686 36.4044 175.131 36.1591C174.587 35.9031 174.155 35.5617 173.835 35.1351C173.515 34.6977 173.345 34.2124 173.323 33.6791H175.211C175.243 34.0524 175.419 34.3671 175.739 34.6231C176.07 34.8684 176.481 34.9911 176.971 34.9911C177.483 34.9911 177.878 34.8951 178.155 34.7031C178.443 34.5004 178.587 34.2444 178.587 33.9351C178.587 33.6044 178.427 33.3591 178.107 33.1991C177.798 33.0391 177.302 32.8631 176.619 32.6711C175.958 32.4897 175.419 32.3137 175.003 32.1431C174.587 31.9724 174.225 31.7111 173.915 31.3591C173.617 31.0071 173.467 30.5431 173.467 29.9671C173.467 29.4977 173.606 29.0711 173.883 28.6871C174.161 28.2924 174.555 27.9831 175.067 27.7591C175.59 27.5351 176.187 27.4231 176.859 27.4231C177.862 27.4231 178.667 27.6791 179.275 28.1911C179.894 28.6924 180.225 29.3804 180.267 30.2551H178.443C178.411 29.8604 178.251 29.5457 177.963 29.3111C177.675 29.0764 177.286 28.9591 176.795 28.9591C176.315 28.9591 175.947 29.0497 175.691 29.2311C175.435 29.4124 175.307 29.6524 175.307 29.9511C175.307 30.1857 175.393 30.3831 175.563 30.5431C175.734 30.7031 175.942 30.8311 176.187 30.9271C176.433 31.0124 176.795 31.1244 177.275 31.2631C177.915 31.4337 178.438 31.6097 178.843 31.7911C179.259 31.9617 179.617 32.2177 179.915 32.5591C180.214 32.9004 180.369 33.3537 180.379 33.9191C180.379 34.4204 180.241 34.8684 179.963 35.2631C179.686 35.6577 179.291 35.9671 178.779 36.1911C178.278 36.4151 177.686 36.5271 177.003 36.5271ZM185.55 36.5271C184.857 36.5271 184.233 36.4044 183.678 36.1591C183.134 35.9031 182.702 35.5617 182.382 35.1351C182.062 34.6977 181.892 34.2124 181.87 33.6791H183.758C183.79 34.0524 183.966 34.3671 184.286 34.6231C184.617 34.8684 185.028 34.9911 185.518 34.9911C186.03 34.9911 186.425 34.8951 186.702 34.7031C186.99 34.5004 187.134 34.2444 187.134 33.9351C187.134 33.6044 186.974 33.3591 186.654 33.1991C186.345 33.0391 185.849 32.8631 185.166 32.6711C184.505 32.4897 183.966 32.3137 183.55 32.1431C183.134 31.9724 182.772 31.7111 182.462 31.3591C182.164 31.0071 182.014 30.5431 182.014 29.9671C182.014 29.4977 182.153 29.0711 182.43 28.6871C182.708 28.2924 183.102 27.9831 183.614 27.7591C184.137 27.5351 184.734 27.4231 185.406 27.4231C186.409 27.4231 187.214 27.6791 187.822 28.1911C188.441 28.6924 188.772 29.3804 188.814 30.2551H186.99C186.958 29.8604 186.798 29.5457 186.51 29.3111C186.222 29.0764 185.833 28.9591 185.342 28.9591C184.862 28.9591 184.494 29.0497 184.238 29.2311C183.982 29.4124 183.854 29.6524 183.854 29.9511C183.854 30.1857 183.94 30.3831 184.11 30.5431C184.281 30.7031 184.489 30.8311 184.734 30.9271C184.98 31.0124 185.342 31.1244 185.822 31.2631C186.462 31.4337 186.985 31.6097 187.39 31.7911C187.806 31.9617 188.164 32.2177 188.462 32.5591C188.761 32.9004 188.916 33.3537 188.926 33.9191C188.926 34.4204 188.788 34.8684 188.51 35.2631C188.233 35.6577 187.838 35.9671 187.326 36.1911C186.825 36.4151 186.233 36.5271 185.55 36.5271Z" fill="#8B8E99" fill-opacity="0.7"/>
<path d="M303.136 17.2097C303.136 12.2391 307.166 8.20972 312.136 8.20972H425.017C429.988 8.20972 434.017 12.2392 434.017 17.2097V44.8597C434.017 49.8303 429.988 53.8597 425.017 53.8597H312.136C307.166 53.8597 303.136 49.8303 303.136 44.8597V17.2097Z" fill="#3858D6"/>
<path d="M331.96 36.4951C331.181 36.4951 330.477 36.3617 329.848 36.0951C329.229 35.8284 328.738 35.4444 328.376 34.9431C328.013 34.4417 327.826 33.8497 327.816 33.1671H330.216C330.248 33.6257 330.408 33.9884 330.696 34.2551C330.994 34.5217 331.4 34.6551 331.912 34.6551C332.434 34.6551 332.845 34.5324 333.144 34.2871C333.442 34.0311 333.592 33.7004 333.592 33.2951C333.592 32.9644 333.49 32.6924 333.288 32.4791C333.085 32.2657 332.829 32.1004 332.52 31.9831C332.221 31.8551 331.805 31.7164 331.272 31.5671C330.546 31.3537 329.954 31.1457 329.496 30.9431C329.048 30.7297 328.658 30.4151 328.328 29.9991C328.008 29.5724 327.848 29.0071 327.848 28.3031C327.848 27.6417 328.013 27.0657 328.344 26.5751C328.674 26.0844 329.138 25.7111 329.736 25.4551C330.333 25.1884 331.016 25.0551 331.784 25.0551C332.936 25.0551 333.869 25.3377 334.584 25.9031C335.309 26.4577 335.709 27.2364 335.784 28.2391H333.32C333.298 27.8551 333.133 27.5404 332.824 27.2951C332.525 27.0391 332.125 26.9111 331.624 26.9111C331.186 26.9111 330.834 27.0231 330.568 27.2471C330.312 27.4711 330.184 27.7964 330.184 28.2231C330.184 28.5217 330.28 28.7724 330.472 28.9751C330.674 29.1671 330.92 29.3271 331.208 29.4551C331.506 29.5724 331.922 29.7111 332.456 29.8711C333.181 30.0844 333.773 30.2977 334.232 30.5111C334.69 30.7244 335.085 31.0444 335.416 31.4711C335.746 31.8977 335.912 32.4577 335.912 33.1511C335.912 33.7484 335.757 34.3031 335.448 34.8151C335.138 35.3271 334.685 35.7377 334.088 36.0471C333.49 36.3457 332.781 36.4951 331.96 36.4951ZM346.222 27.5191V36.3831H343.966V35.2631C343.678 35.6471 343.299 35.9511 342.83 36.1751C342.371 36.3884 341.87 36.4951 341.326 36.4951C340.632 36.4951 340.019 36.3511 339.486 36.0631C338.952 35.7644 338.531 35.3324 338.222 34.7671C337.923 34.1911 337.774 33.5084 337.774 32.7191V27.5191H340.014V32.3991C340.014 33.1031 340.19 33.6471 340.542 34.0311C340.894 34.4044 341.374 34.5911 341.982 34.5911C342.6 34.5911 343.086 34.4044 343.438 34.0311C343.79 33.6471 343.966 33.1031 343.966 32.3991V27.5191H346.222ZM350.672 28.8151C350.96 28.3884 351.354 28.0417 351.856 27.7751C352.368 27.5084 352.949 27.3751 353.6 27.3751C354.357 27.3751 355.04 27.5617 355.648 27.9351C356.266 28.3084 356.752 28.8417 357.104 29.5351C357.466 30.2177 357.648 31.0124 357.648 31.9191C357.648 32.8257 357.466 33.6311 357.104 34.3351C356.752 35.0284 356.266 35.5671 355.648 35.9511C355.04 36.3351 354.357 36.5271 353.6 36.5271C352.938 36.5271 352.357 36.3991 351.856 36.1431C351.365 35.8764 350.97 35.5351 350.672 35.1191V36.3831H348.432V24.5431H350.672V28.8151ZM355.36 31.9191C355.36 31.3857 355.248 30.9271 355.024 30.5431C354.81 30.1484 354.522 29.8497 354.16 29.6471C353.808 29.4444 353.424 29.3431 353.008 29.3431C352.602 29.3431 352.218 29.4497 351.856 29.6631C351.504 29.8657 351.216 30.1644 350.992 30.5591C350.778 30.9537 350.672 31.4177 350.672 31.9511C350.672 32.4844 350.778 32.9484 350.992 33.3431C351.216 33.7377 351.504 34.0417 351.856 34.2551C352.218 34.4577 352.602 34.5591 353.008 34.5591C353.424 34.5591 353.808 34.4524 354.16 34.2391C354.522 34.0257 354.81 33.7217 355.024 33.3271C355.248 32.9324 355.36 32.4631 355.36 31.9191ZM362.667 36.5271C361.942 36.5271 361.291 36.3991 360.715 36.1431C360.139 35.8764 359.681 35.5191 359.339 35.0711C359.009 34.6231 358.827 34.1271 358.795 33.5831H361.051C361.094 33.9244 361.259 34.2071 361.547 34.4311C361.846 34.6551 362.214 34.7671 362.651 34.7671C363.078 34.7671 363.409 34.6817 363.643 34.5111C363.889 34.3404 364.011 34.1217 364.011 33.8551C364.011 33.5671 363.862 33.3537 363.563 33.2151C363.275 33.0657 362.811 32.9057 362.171 32.7351C361.51 32.5751 360.966 32.4097 360.539 32.2391C360.123 32.0684 359.761 31.8071 359.451 31.4551C359.153 31.1031 359.003 30.6284 359.003 30.0311C359.003 29.5404 359.142 29.0924 359.419 28.6871C359.707 28.2817 360.113 27.9617 360.635 27.7271C361.169 27.4924 361.793 27.3751 362.507 27.3751C363.563 27.3751 364.406 27.6417 365.035 28.1751C365.665 28.6977 366.011 29.4071 366.075 30.3031H363.931C363.899 29.9511 363.75 29.6737 363.483 29.4711C363.227 29.2577 362.881 29.1511 362.443 29.1511C362.038 29.1511 361.723 29.2257 361.499 29.3751C361.286 29.5244 361.179 29.7324 361.179 29.9991C361.179 30.2977 361.329 30.5271 361.627 30.6871C361.926 30.8364 362.39 30.9911 363.019 31.1511C363.659 31.3111 364.187 31.4764 364.603 31.6471C365.019 31.8177 365.377 32.0844 365.675 32.4471C365.985 32.7991 366.145 33.2684 366.155 33.8551C366.155 34.3671 366.011 34.8257 365.723 35.2311C365.446 35.6364 365.041 35.9564 364.507 36.1911C363.985 36.4151 363.371 36.5271 362.667 36.5271ZM367.418 31.9511C367.418 31.0337 367.605 30.2337 367.978 29.5511C368.352 28.8577 368.869 28.3244 369.53 27.9511C370.192 27.5671 370.949 27.3751 371.802 27.3751C372.901 27.3751 373.808 27.6524 374.522 28.2071C375.248 28.7511 375.733 29.5191 375.978 30.5111H373.562C373.434 30.1271 373.216 29.8284 372.906 29.6151C372.608 29.3911 372.234 29.2791 371.786 29.2791C371.146 29.2791 370.64 29.5137 370.266 29.9831C369.893 30.4417 369.706 31.0977 369.706 31.9511C369.706 32.7937 369.893 33.4497 370.266 33.9191C370.64 34.3777 371.146 34.6071 371.786 34.6071C372.693 34.6071 373.285 34.2017 373.562 33.3911H375.978C375.733 34.3511 375.248 35.1137 374.522 35.6791C373.797 36.2444 372.89 36.5271 371.802 36.5271C370.949 36.5271 370.192 36.3404 369.53 35.9671C368.869 35.5831 368.352 35.0497 367.978 34.3671C367.605 33.6737 367.418 32.8684 367.418 31.9511ZM379.859 28.8951C380.147 28.4257 380.521 28.0577 380.979 27.7911C381.449 27.5244 381.982 27.3911 382.579 27.3911V29.7431H381.987C381.283 29.7431 380.75 29.9084 380.387 30.2391C380.035 30.5697 379.859 31.1457 379.859 31.9671V36.3831H377.619V27.5191H379.859V28.8951ZM385.224 26.4631C384.829 26.4631 384.499 26.3404 384.232 26.0951C383.976 25.8391 383.848 25.5244 383.848 25.1511C383.848 24.7777 383.976 24.4684 384.232 24.2231C384.499 23.9671 384.829 23.8391 385.224 23.8391C385.619 23.8391 385.944 23.9671 386.2 24.2231C386.467 24.4684 386.6 24.7777 386.6 25.1511C386.6 25.5244 386.467 25.8391 386.2 26.0951C385.944 26.3404 385.619 26.4631 385.224 26.4631ZM386.328 27.5191V36.3831H384.088V27.5191H386.328ZM390.781 28.8151C391.069 28.3884 391.464 28.0417 391.965 27.7751C392.477 27.5084 393.058 27.3751 393.709 27.3751C394.466 27.3751 395.149 27.5617 395.757 27.9351C396.376 28.3084 396.861 28.8417 397.213 29.5351C397.576 30.2177 397.757 31.0124 397.757 31.9191C397.757 32.8257 397.576 33.6311 397.213 34.3351C396.861 35.0284 396.376 35.5671 395.757 35.9511C395.149 36.3351 394.466 36.5271 393.709 36.5271C393.048 36.5271 392.466 36.3991 391.965 36.1431C391.474 35.8764 391.08 35.5351 390.781 35.1191V36.3831H388.541V24.5431H390.781V28.8151ZM395.469 31.9191C395.469 31.3857 395.357 30.9271 395.133 30.5431C394.92 30.1484 394.632 29.8497 394.269 29.6471C393.917 29.4444 393.533 29.3431 393.117 29.3431C392.712 29.3431 392.328 29.4497 391.965 29.6631C391.613 29.8657 391.325 30.1644 391.101 30.5591C390.888 30.9537 390.781 31.4177 390.781 31.9511C390.781 32.4844 390.888 32.9484 391.101 33.3431C391.325 33.7377 391.613 34.0417 391.965 34.2551C392.328 34.4577 392.712 34.5591 393.117 34.5591C393.533 34.5591 393.917 34.4524 394.269 34.2391C394.632 34.0257 394.92 33.7217 395.133 33.3271C395.357 32.9324 395.469 32.4631 395.469 31.9191ZM407.625 31.7591C407.625 32.0791 407.604 32.3671 407.561 32.6231H401.081C401.134 33.2631 401.358 33.7644 401.753 34.1271C402.148 34.4897 402.633 34.6711 403.209 34.6711C404.041 34.6711 404.633 34.3137 404.985 33.5991H407.401C407.145 34.4524 406.654 35.1564 405.929 35.7111C405.204 36.2551 404.313 36.5271 403.257 36.5271C402.404 36.5271 401.636 36.3404 400.953 35.9671C400.281 35.5831 399.753 35.0444 399.369 34.3511C398.996 33.6577 398.809 32.8577 398.809 31.9511C398.809 31.0337 398.996 30.2284 399.369 29.5351C399.742 28.8417 400.265 28.3084 400.937 27.9351C401.609 27.5617 402.382 27.3751 403.257 27.3751C404.1 27.3751 404.852 27.5564 405.513 27.9191C406.185 28.2817 406.702 28.7991 407.065 29.4711C407.438 30.1324 407.625 30.8951 407.625 31.7591ZM405.305 31.1191C405.294 30.5431 405.086 30.0844 404.681 29.7431C404.276 29.3911 403.78 29.2151 403.193 29.2151C402.638 29.2151 402.169 29.3857 401.785 29.7271C401.412 30.0577 401.182 30.5217 401.097 31.1191H405.305Z" fill="white"/>
</svg>
