<svg width="443" height="60" viewBox="0 0 443 60" fill="none" xmlns="http://www.w3.org/2000/svg">
<rect width="443" height="60" rx="15" fill="white"/>
<g opacity="0.21">
<path d="M28.625 35.625C32.491 35.625 35.625 32.491 35.625 28.625C35.625 24.759 32.491 21.625 28.625 21.625C24.759 21.625 21.625 24.759 21.625 28.625C21.625 32.491 24.759 35.625 28.625 35.625Z" stroke="#3858D6" stroke-width="2" stroke-linecap="round" stroke-linejoin="round"/>
<path d="M37.375 37.375L33.5688 33.5688" stroke="#3858D6" stroke-width="2" stroke-linecap="round" stroke-linejoin="round"/>
</g>
<path d="M63.744 23.88V25.368H59.024V28.648H62.704V30.136H59.024V35H57.2V23.88H63.744ZM66.3624 25.016C66.0317 25.016 65.7544 24.904 65.5304 24.68C65.3064 24.456 65.1944 24.1787 65.1944 23.848C65.1944 23.5173 65.3064 23.24 65.5304 23.016C65.7544 22.792 66.0317 22.68 66.3624 22.68C66.6824 22.68 66.9544 22.792 67.1784 23.016C67.4024 23.24 67.5144 23.5173 67.5144 23.848C67.5144 24.1787 67.4024 24.456 67.1784 24.68C66.9544 24.904 66.6824 25.016 66.3624 25.016ZM67.2584 26.184V35H65.4344V26.184H67.2584ZM74.1011 26.04C74.7945 26.04 75.4131 26.184 75.9571 26.472C76.5118 26.76 76.9438 27.1867 77.2531 27.752C77.5625 28.3173 77.7171 29 77.7171 29.8V35H75.9091V30.072C75.9091 29.2827 75.7118 28.68 75.3171 28.264C74.9225 27.8373 74.3838 27.624 73.7011 27.624C73.0185 27.624 72.4745 27.8373 72.0691 28.264C71.6745 28.68 71.4771 29.2827 71.4771 30.072V35H69.6531V26.184H71.4771V27.192C71.7758 26.8293 72.1545 26.5467 72.6131 26.344C73.0825 26.1413 73.5785 26.04 74.1011 26.04ZM79.4358 30.552C79.4358 29.6667 79.6171 28.8827 79.9798 28.2C80.3531 27.5173 80.8544 26.9893 81.4838 26.616C82.1238 26.232 82.8331 26.04 83.6118 26.04C84.1878 26.04 84.7531 26.168 85.3078 26.424C85.8731 26.6693 86.3211 27 86.6518 27.416V23.16H88.4918V35H86.6518V33.672C86.3531 34.0987 85.9371 34.4507 85.4038 34.728C84.8811 35.0053 84.2784 35.144 83.5958 35.144C82.8278 35.144 82.1238 34.952 81.4838 34.568C80.8544 34.1733 80.3531 33.6293 79.9798 32.936C79.6171 32.232 79.4358 31.4373 79.4358 30.552ZM86.6518 30.584C86.6518 29.976 86.5238 29.448 86.2678 29C86.0224 28.552 85.6971 28.2107 85.2918 27.976C84.8864 27.7413 84.4491 27.624 83.9798 27.624C83.5104 27.624 83.0731 27.7413 82.6678 27.976C82.2624 28.2 81.9318 28.536 81.6758 28.984C81.4304 29.4213 81.3078 29.944 81.3078 30.552C81.3078 31.16 81.4304 31.6933 81.6758 32.152C81.9318 32.6107 82.2624 32.9627 82.6678 33.208C83.0838 33.4427 83.5211 33.56 83.9798 33.56C84.4491 33.56 84.8864 33.4427 85.2918 33.208C85.6971 32.9733 86.0224 32.632 86.2678 32.184C86.5238 31.7253 86.6518 31.192 86.6518 30.584ZM97.1718 27.672V32.552C97.1718 32.8827 97.2464 33.1227 97.3958 33.272C97.5558 33.4107 97.8224 33.48 98.1958 33.48H99.3158V35H97.8758C97.0544 35 96.4251 34.808 95.9878 34.424C95.5504 34.04 95.3318 33.416 95.3318 32.552V27.672H94.2918V26.184H95.3318V23.992H97.1718V26.184H99.3158V27.672H97.1718ZM105.557 26.04C106.229 26.04 106.826 26.184 107.349 26.472C107.882 26.76 108.298 27.1867 108.597 27.752C108.906 28.3173 109.061 29 109.061 29.8V35H107.253V30.072C107.253 29.2827 107.056 28.68 106.661 28.264C106.266 27.8373 105.728 27.624 105.045 27.624C104.362 27.624 103.818 27.8373 103.413 28.264C103.018 28.68 102.821 29.2827 102.821 30.072V35H100.997V23.16H102.821V27.208C103.13 26.8347 103.52 26.5467 103.989 26.344C104.469 26.1413 104.992 26.04 105.557 26.04ZM119.468 30.376C119.468 30.7067 119.446 31.0053 119.404 31.272H112.668C112.721 31.976 112.982 32.5413 113.452 32.968C113.921 33.3947 114.497 33.608 115.18 33.608C116.161 33.608 116.854 33.1973 117.26 32.376H119.227C118.961 33.1867 118.476 33.8533 117.772 34.376C117.078 34.888 116.214 35.144 115.18 35.144C114.337 35.144 113.58 34.9573 112.908 34.584C112.246 34.2 111.724 33.6667 111.34 32.984C110.966 32.2907 110.78 31.4907 110.78 30.584C110.78 29.6773 110.961 28.8827 111.324 28.2C111.697 27.5067 112.214 26.9733 112.876 26.6C113.548 26.2267 114.316 26.04 115.18 26.04C116.012 26.04 116.753 26.2213 117.404 26.584C118.054 26.9467 118.561 27.4587 118.924 28.12C119.286 28.7707 119.468 29.5227 119.468 30.376ZM117.564 29.8C117.553 29.128 117.313 28.5893 116.844 28.184C116.374 27.7787 115.793 27.576 115.1 27.576C114.47 27.576 113.932 27.7787 113.484 28.184C113.036 28.5787 112.769 29.1173 112.684 29.8H117.564ZM127.243 27.496C127.552 27.0693 127.973 26.7227 128.507 26.456C129.051 26.1787 129.653 26.04 130.315 26.04C131.093 26.04 131.797 26.2267 132.427 26.6C133.056 26.9733 133.552 27.5067 133.915 28.2C134.277 28.8827 134.459 29.6667 134.459 30.552C134.459 31.4373 134.277 32.232 133.915 32.936C133.552 33.6293 133.051 34.1733 132.411 34.568C131.781 34.952 131.083 35.144 130.315 35.144C129.632 35.144 129.024 35.0107 128.491 34.744C127.968 34.4773 127.552 34.136 127.243 33.72V35H125.419V23.16H127.243V27.496ZM132.603 30.552C132.603 29.944 132.475 29.4213 132.219 28.984C131.973 28.536 131.643 28.2 131.227 27.976C130.821 27.7413 130.384 27.624 129.915 27.624C129.456 27.624 129.019 27.7413 128.603 27.976C128.197 28.2107 127.867 28.552 127.611 29C127.365 29.448 127.243 29.976 127.243 30.584C127.243 31.192 127.365 31.7253 127.611 32.184C127.867 32.632 128.197 32.9733 128.603 33.208C129.019 33.4427 129.456 33.56 129.915 33.56C130.384 33.56 130.821 33.4427 131.227 33.208C131.643 32.9627 131.973 32.6107 132.219 32.152C132.475 31.6933 132.603 31.16 132.603 30.552ZM144.343 30.376C144.343 30.7067 144.321 31.0053 144.279 31.272H137.543C137.596 31.976 137.857 32.5413 138.327 32.968C138.796 33.3947 139.372 33.608 140.055 33.608C141.036 33.608 141.729 33.1973 142.135 32.376H144.102C143.836 33.1867 143.351 33.8533 142.647 34.376C141.953 34.888 141.089 35.144 140.055 35.144C139.212 35.144 138.455 34.9573 137.783 34.584C137.121 34.2 136.599 33.6667 136.215 32.984C135.841 32.2907 135.655 31.4907 135.655 30.584C135.655 29.6773 135.836 28.8827 136.199 28.2C136.572 27.5067 137.089 26.9733 137.751 26.6C138.423 26.2267 139.191 26.04 140.055 26.04C140.887 26.04 141.628 26.2213 142.279 26.584C142.929 26.9467 143.436 27.4587 143.799 28.12C144.161 28.7707 144.343 29.5227 144.343 30.376ZM142.439 29.8C142.428 29.128 142.188 28.5893 141.719 28.184C141.249 27.7787 140.668 27.576 139.975 27.576C139.345 27.576 138.807 27.7787 138.359 28.184C137.911 28.5787 137.644 29.1173 137.559 29.8H142.439ZM149.338 35.144C148.644 35.144 148.02 35.0213 147.466 34.776C146.922 34.52 146.49 34.1787 146.17 33.752C145.85 33.3147 145.679 32.8293 145.658 32.296H147.546C147.578 32.6693 147.754 32.984 148.074 33.24C148.404 33.4853 148.815 33.608 149.306 33.608C149.818 33.608 150.212 33.512 150.49 33.32C150.778 33.1173 150.922 32.8613 150.922 32.552C150.922 32.2213 150.762 31.976 150.442 31.816C150.132 31.656 149.636 31.48 148.954 31.288C148.292 31.1067 147.754 30.9307 147.338 30.76C146.922 30.5893 146.559 30.328 146.25 29.976C145.951 29.624 145.802 29.16 145.802 28.584C145.802 28.1147 145.94 27.688 146.218 27.304C146.495 26.9093 146.89 26.6 147.402 26.376C147.924 26.152 148.522 26.04 149.194 26.04C150.196 26.04 151.002 26.296 151.61 26.808C152.228 27.3093 152.559 27.9973 152.602 28.872H150.778C150.746 28.4773 150.586 28.1627 150.298 27.928C150.01 27.6933 149.62 27.576 149.13 27.576C148.65 27.576 148.282 27.6667 148.026 27.848C147.77 28.0293 147.642 28.2693 147.642 28.568C147.642 28.8027 147.727 29 147.898 29.16C148.068 29.32 148.276 29.448 148.522 29.544C148.767 29.6293 149.13 29.7413 149.61 29.88C150.25 30.0507 150.772 30.2267 151.178 30.408C151.594 30.5787 151.951 30.8347 152.25 31.176C152.548 31.5173 152.703 31.9707 152.714 32.536C152.714 33.0373 152.575 33.4853 152.298 33.88C152.02 34.2747 151.626 34.584 151.114 34.808C150.612 35.032 150.02 35.144 149.338 35.144ZM156.812 27.672V32.552C156.812 32.8827 156.887 33.1227 157.036 33.272C157.196 33.4107 157.463 33.48 157.836 33.48H158.956V35H157.516C156.695 35 156.066 34.808 155.628 34.424C155.191 34.04 154.972 33.416 154.972 32.552V27.672H153.932V26.184H154.972V23.992H156.812V26.184H158.956V27.672H156.812ZM166.618 27.496C166.927 27.0693 167.348 26.7227 167.882 26.456C168.426 26.1787 169.028 26.04 169.69 26.04C170.468 26.04 171.172 26.2267 171.802 26.6C172.431 26.9733 172.927 27.5067 173.29 28.2C173.652 28.8827 173.834 29.6667 173.834 30.552C173.834 31.4373 173.652 32.232 173.29 32.936C172.927 33.6293 172.426 34.1733 171.786 34.568C171.156 34.952 170.458 35.144 169.69 35.144C169.007 35.144 168.399 35.0107 167.866 34.744C167.343 34.4773 166.927 34.136 166.618 33.72V35H164.794V23.16H166.618V27.496ZM171.978 30.552C171.978 29.944 171.85 29.4213 171.594 28.984C171.348 28.536 171.018 28.2 170.602 27.976C170.196 27.7413 169.759 27.624 169.29 27.624C168.831 27.624 168.394 27.7413 167.978 27.976C167.572 28.2107 167.242 28.552 166.986 29C166.74 29.448 166.618 29.976 166.618 30.584C166.618 31.192 166.74 31.7253 166.986 32.184C167.242 32.632 167.572 32.9733 167.978 33.208C168.394 33.4427 168.831 33.56 169.29 33.56C169.759 33.56 170.196 33.4427 170.602 33.208C171.018 32.9627 171.348 32.6107 171.594 32.152C171.85 31.6933 171.978 31.16 171.978 30.552ZM177.462 27.464C177.728 27.016 178.08 26.6693 178.518 26.424C178.966 26.168 179.494 26.04 180.102 26.04V27.928H179.638C178.923 27.928 178.379 28.1093 178.006 28.472C177.643 28.8347 177.462 29.464 177.462 30.36V35H175.638V26.184H177.462V27.464ZM181.17 30.552C181.17 29.6667 181.351 28.8827 181.714 28.2C182.087 27.5173 182.589 26.9893 183.218 26.616C183.858 26.232 184.562 26.04 185.33 26.04C186.023 26.04 186.626 26.1787 187.138 26.456C187.661 26.7227 188.077 27.0587 188.386 27.464V26.184H190.226V35H188.386V33.688C188.077 34.104 187.655 34.4507 187.122 34.728C186.589 35.0053 185.981 35.144 185.298 35.144C184.541 35.144 183.847 34.952 183.218 34.568C182.589 34.1733 182.087 33.6293 181.714 32.936C181.351 32.232 181.17 31.4373 181.17 30.552ZM188.386 30.584C188.386 29.976 188.258 29.448 188.002 29C187.757 28.552 187.431 28.2107 187.026 27.976C186.621 27.7413 186.183 27.624 185.714 27.624C185.245 27.624 184.807 27.7413 184.402 27.976C183.997 28.2 183.666 28.536 183.41 28.984C183.165 29.4213 183.042 29.944 183.042 30.552C183.042 31.16 183.165 31.6933 183.41 32.152C183.666 32.6107 183.997 32.9627 184.402 33.208C184.818 33.4427 185.255 33.56 185.714 33.56C186.183 33.56 186.621 33.4427 187.026 33.208C187.431 32.9733 187.757 32.632 188.002 32.184C188.258 31.7253 188.386 31.192 188.386 30.584ZM197.07 26.04C197.763 26.04 198.382 26.184 198.926 26.472C199.481 26.76 199.913 27.1867 200.222 27.752C200.531 28.3173 200.686 29 200.686 29.8V35H198.878V30.072C198.878 29.2827 198.681 28.68 198.286 28.264C197.891 27.8373 197.353 27.624 196.67 27.624C195.987 27.624 195.443 27.8373 195.038 28.264C194.643 28.68 194.446 29.2827 194.446 30.072V35H192.622V26.184H194.446V27.192C194.745 26.8293 195.123 26.5467 195.582 26.344C196.051 26.1413 196.547 26.04 197.07 26.04ZM202.405 30.552C202.405 29.6667 202.586 28.8827 202.949 28.2C203.322 27.5173 203.823 26.9893 204.453 26.616C205.093 26.232 205.802 26.04 206.581 26.04C207.157 26.04 207.722 26.168 208.277 26.424C208.842 26.6693 209.29 27 209.621 27.416V23.16H211.461V35H209.621V33.672C209.322 34.0987 208.906 34.4507 208.373 34.728C207.85 35.0053 207.247 35.144 206.565 35.144C205.797 35.144 205.093 34.952 204.453 34.568C203.823 34.1733 203.322 33.6293 202.949 32.936C202.586 32.232 202.405 31.4373 202.405 30.552ZM209.621 30.584C209.621 29.976 209.493 29.448 209.237 29C208.991 28.552 208.666 28.2107 208.261 27.976C207.855 27.7413 207.418 27.624 206.949 27.624C206.479 27.624 206.042 27.7413 205.637 27.976C205.231 28.2 204.901 28.536 204.645 28.984C204.399 29.4213 204.277 29.944 204.277 30.552C204.277 31.16 204.399 31.6933 204.645 32.152C204.901 32.6107 205.231 32.9627 205.637 33.208C206.053 33.4427 206.49 33.56 206.949 33.56C207.418 33.56 207.855 33.4427 208.261 33.208C208.666 32.9733 208.991 32.632 209.237 32.184C209.493 31.7253 209.621 31.192 209.621 30.584ZM217.056 35.144C216.363 35.144 215.739 35.0213 215.184 34.776C214.64 34.52 214.208 34.1787 213.888 33.752C213.568 33.3147 213.398 32.8293 213.376 32.296H215.264C215.296 32.6693 215.472 32.984 215.792 33.24C216.123 33.4853 216.534 33.608 217.024 33.608C217.536 33.608 217.931 33.512 218.208 33.32C218.496 33.1173 218.64 32.8613 218.64 32.552C218.64 32.2213 218.48 31.976 218.16 31.816C217.851 31.656 217.355 31.48 216.672 31.288C216.011 31.1067 215.472 30.9307 215.056 30.76C214.64 30.5893 214.278 30.328 213.968 29.976C213.67 29.624 213.52 29.16 213.52 28.584C213.52 28.1147 213.659 27.688 213.936 27.304C214.214 26.9093 214.608 26.6 215.12 26.376C215.643 26.152 216.24 26.04 216.912 26.04C217.915 26.04 218.72 26.296 219.328 26.808C219.947 27.3093 220.278 27.9973 220.32 28.872H218.496C218.464 28.4773 218.304 28.1627 218.016 27.928C217.728 27.6933 217.339 27.576 216.848 27.576C216.368 27.576 216 27.6667 215.744 27.848C215.488 28.0293 215.36 28.2693 215.36 28.568C215.36 28.8027 215.446 29 215.616 29.16C215.787 29.32 215.995 29.448 216.24 29.544C216.486 29.6293 216.848 29.7413 217.328 29.88C217.968 30.0507 218.491 30.2267 218.896 30.408C219.312 30.5787 219.67 30.8347 219.968 31.176C220.267 31.5173 220.422 31.9707 220.432 32.536C220.432 33.0373 220.294 33.4853 220.016 33.88C219.739 34.2747 219.344 34.584 218.832 34.808C218.331 35.032 217.739 35.144 217.056 35.144Z" fill="#8B8E99" fill-opacity="0.7"/>
<path d="M322 16C322 11.0294 326.029 7 331 7H425C429.971 7 434 11.0294 434 16V43C434 47.9706 429.971 52 425 52H331C326.029 52 322 47.9706 322 43V16Z" fill="#3858D6"/>
<path d="M351.438 35.126C350.562 35.126 349.77 34.976 349.062 34.676C348.366 34.376 347.814 33.944 347.406 33.38C346.998 32.816 346.788 32.15 346.776 31.382H349.476C349.512 31.898 349.692 32.306 350.016 32.606C350.352 32.906 350.808 33.056 351.384 33.056C351.972 33.056 352.434 32.918 352.77 32.642C353.106 32.354 353.274 31.982 353.274 31.526C353.274 31.154 353.16 30.848 352.932 30.608C352.704 30.368 352.416 30.182 352.068 30.05C351.732 29.906 351.264 29.75 350.664 29.582C349.848 29.342 349.182 29.108 348.666 28.88C348.162 28.64 347.724 28.286 347.352 27.818C346.992 27.338 346.812 26.702 346.812 25.91C346.812 25.166 346.998 24.518 347.37 23.966C347.742 23.414 348.264 22.994 348.936 22.706C349.608 22.406 350.376 22.256 351.24 22.256C352.536 22.256 353.586 22.574 354.39 23.21C355.206 23.834 355.656 24.71 355.74 25.838H352.968C352.944 25.406 352.758 25.052 352.41 24.776C352.074 24.488 351.624 24.344 351.06 24.344C350.568 24.344 350.172 24.47 349.872 24.722C349.584 24.974 349.44 25.34 349.44 25.82C349.44 26.156 349.548 26.438 349.764 26.666C349.992 26.882 350.268 27.062 350.592 27.206C350.928 27.338 351.396 27.494 351.996 27.674C352.812 27.914 353.478 28.154 353.994 28.394C354.51 28.634 354.954 28.994 355.326 29.474C355.698 29.954 355.884 30.584 355.884 31.364C355.884 32.036 355.71 32.66 355.362 33.236C355.014 33.812 354.504 34.274 353.832 34.622C353.16 34.958 352.362 35.126 351.438 35.126ZM367.339 29.798C367.339 30.158 367.315 30.482 367.267 30.77H359.977C360.037 31.49 360.289 32.054 360.733 32.462C361.177 32.87 361.723 33.074 362.371 33.074C363.307 33.074 363.973 32.672 364.369 31.868H367.087C366.799 32.828 366.247 33.62 365.431 34.244C364.615 34.856 363.613 35.162 362.425 35.162C361.465 35.162 360.601 34.952 359.833 34.532C359.077 34.1 358.483 33.494 358.051 32.714C357.631 31.934 357.421 31.034 357.421 30.014C357.421 28.982 357.631 28.076 358.051 27.296C358.471 26.516 359.059 25.916 359.815 25.496C360.571 25.076 361.441 24.866 362.425 24.866C363.373 24.866 364.219 25.07 364.963 25.478C365.719 25.886 366.301 26.468 366.709 27.224C367.129 27.968 367.339 28.826 367.339 29.798ZM364.729 29.078C364.717 28.43 364.483 27.914 364.027 27.53C363.571 27.134 363.013 26.936 362.353 26.936C361.729 26.936 361.201 27.128 360.769 27.512C360.349 27.884 360.091 28.406 359.995 29.078H364.729ZM368.531 29.978C368.531 28.97 368.729 28.076 369.125 27.296C369.533 26.516 370.079 25.916 370.763 25.496C371.459 25.076 372.233 24.866 373.085 24.866C373.829 24.866 374.477 25.016 375.029 25.316C375.593 25.616 376.043 25.994 376.379 26.45V25.028H378.917V35H376.379V33.542C376.055 34.01 375.605 34.4 375.029 34.712C374.465 35.012 373.811 35.162 373.067 35.162C372.227 35.162 371.459 34.946 370.763 34.514C370.079 34.082 369.533 33.476 369.125 32.696C368.729 31.904 368.531 30.998 368.531 29.978ZM376.379 30.014C376.379 29.402 376.259 28.88 376.019 28.448C375.779 28.004 375.455 27.668 375.047 27.44C374.639 27.2 374.201 27.08 373.733 27.08C373.265 27.08 372.833 27.194 372.437 27.422C372.041 27.65 371.717 27.986 371.465 28.43C371.225 28.862 371.105 29.378 371.105 29.978C371.105 30.578 371.225 31.106 371.465 31.562C371.717 32.006 372.041 32.348 372.437 32.588C372.845 32.828 373.277 32.948 373.733 32.948C374.201 32.948 374.639 32.834 375.047 32.606C375.455 32.366 375.779 32.03 376.019 31.598C376.259 31.154 376.379 30.626 376.379 30.014ZM383.898 26.576C384.222 26.048 384.642 25.634 385.158 25.334C385.686 25.034 386.286 24.884 386.958 24.884V27.53H386.292C385.5 27.53 384.9 27.716 384.492 28.088C384.096 28.46 383.898 29.108 383.898 30.032V35H381.378V25.028H383.898V26.576ZM388.007 30.014C388.007 28.982 388.217 28.082 388.637 27.314C389.057 26.534 389.639 25.934 390.383 25.514C391.127 25.082 391.979 24.866 392.939 24.866C394.175 24.866 395.195 25.178 395.999 25.802C396.815 26.414 397.361 27.278 397.637 28.394H394.919C394.775 27.962 394.529 27.626 394.181 27.386C393.845 27.134 393.425 27.008 392.921 27.008C392.201 27.008 391.631 27.272 391.211 27.8C390.791 28.316 390.581 29.054 390.581 30.014C390.581 30.962 390.791 31.7 391.211 32.228C391.631 32.744 392.201 33.002 392.921 33.002C393.941 33.002 394.607 32.546 394.919 31.634H397.637C397.361 32.714 396.815 33.572 395.999 34.208C395.183 34.844 394.163 35.162 392.939 35.162C391.979 35.162 391.127 34.952 390.383 34.532C389.639 34.1 389.057 33.5 388.637 32.732C388.217 31.952 388.007 31.046 388.007 30.014ZM405.099 24.884C405.855 24.884 406.527 25.052 407.115 25.388C407.703 25.712 408.159 26.198 408.483 26.846C408.819 27.482 408.987 28.25 408.987 29.15V35H406.467V29.492C406.467 28.7 406.269 28.094 405.873 27.674C405.477 27.242 404.937 27.026 404.253 27.026C403.557 27.026 403.005 27.242 402.597 27.674C402.201 28.094 402.003 28.7 402.003 29.492V35H399.483V21.68H402.003V26.27C402.327 25.838 402.759 25.502 403.299 25.262C403.839 25.01 404.439 24.884 405.099 24.884Z" fill="white"/>
</svg>
